<?xml version="1.0" encoding="utf-8" standalone="no"?>
<!DOCTYPE svg PUBLIC "-//W3C//DTD SVG 1.1//EN"
  "http://www.w3.org/Graphics/SVG/1.1/DTD/svg11.dtd">
<svg xmlns:xlink="http://www.w3.org/1999/xlink" width="720pt" height="360pt" viewBox="0 0 720 360" xmlns="http://www.w3.org/2000/svg" version="1.1">
 <metadata>
  <rdf:RDF xmlns:dc="http://purl.org/dc/elements/1.1/" xmlns:cc="http://creativecommons.org/ns#" xmlns:rdf="http://www.w3.org/1999/02/22-rdf-syntax-ns#">
   <cc:Work>
    <dc:type rdf:resource="http://purl.org/dc/dcmitype/StillImage"/>
    <dc:date>2023-05-15T14:08:24.632139</dc:date>
    <dc:format>image/svg+xml</dc:format>
    <dc:creator>
     <cc:Agent>
      <dc:title>Matplotlib v3.7.1, https://matplotlib.org/</dc:title>
     </cc:Agent>
    </dc:creator>
   </cc:Work>
  </rdf:RDF>
 </metadata>
 <defs>
  <style type="text/css">*{stroke-linejoin: round; stroke-linecap: butt}</style>
 </defs>
 <g id="figure_1">
  <g id="patch_1">
   <path d="M 0 360 
L 720 360 
L 720 0 
L 0 0 
z
" style="fill: #ffffff"/>
  </g>
  <g id="axes_1">
   <g id="patch_2">
    <path d="M 90 320.4 
L 648 320.4 
L 648 43.2 
L 90 43.2 
z
" style="fill: #ffffff"/>
   </g>
   <g id="matplotlib.axis_1">
    <g id="xtick_1">
     <g id="line2d_1">
      <path d="M 115.363636 320.4 
L 115.363636 43.2 
" clip-path="url(#pcd11dfc7e0)" style="fill: none; stroke: #b0b0b0; stroke-width: 0.8; stroke-linecap: square"/>
     </g>
     <g id="line2d_2">
      <defs>
       <path id="m6aa327497f" d="M 0 0 
L 0 3.5 
" style="stroke: #000000; stroke-width: 0.8"/>
      </defs>
      <g>
       <use xlink:href="#m6aa327497f" x="115.363636" y="320.4" style="stroke: #000000; stroke-width: 0.8"/>
      </g>
     </g>
     <g id="text_1">
      <!-- 2000-02-01 -->
      <g transform="translate(86.305824 334.998438) scale(0.1 -0.1)">
       <defs>
        <path id="DejaVuSans-32" d="M 1228 531 
L 3431 531 
L 3431 0 
L 469 0 
L 469 531 
Q 828 903 1448 1529 
Q 2069 2156 2228 2338 
Q 2531 2678 2651 2914 
Q 2772 3150 2772 3378 
Q 2772 3750 2511 3984 
Q 2250 4219 1831 4219 
Q 1534 4219 1204 4116 
Q 875 4013 500 3803 
L 500 4441 
Q 881 4594 1212 4672 
Q 1544 4750 1819 4750 
Q 2544 4750 2975 4387 
Q 3406 4025 3406 3419 
Q 3406 3131 3298 2873 
Q 3191 2616 2906 2266 
Q 2828 2175 2409 1742 
Q 1991 1309 1228 531 
z
" transform="scale(0.015625)"/>
        <path id="DejaVuSans-30" d="M 2034 4250 
Q 1547 4250 1301 3770 
Q 1056 3291 1056 2328 
Q 1056 1369 1301 889 
Q 1547 409 2034 409 
Q 2525 409 2770 889 
Q 3016 1369 3016 2328 
Q 3016 3291 2770 3770 
Q 2525 4250 2034 4250 
z
M 2034 4750 
Q 2819 4750 3233 4129 
Q 3647 3509 3647 2328 
Q 3647 1150 3233 529 
Q 2819 -91 2034 -91 
Q 1250 -91 836 529 
Q 422 1150 422 2328 
Q 422 3509 836 4129 
Q 1250 4750 2034 4750 
z
" transform="scale(0.015625)"/>
        <path id="DejaVuSans-2d" d="M 313 2009 
L 1997 2009 
L 1997 1497 
L 313 1497 
L 313 2009 
z
" transform="scale(0.015625)"/>
        <path id="DejaVuSans-31" d="M 794 531 
L 1825 531 
L 1825 4091 
L 703 3866 
L 703 4441 
L 1819 4666 
L 2450 4666 
L 2450 531 
L 3481 531 
L 3481 0 
L 794 0 
L 794 531 
z
" transform="scale(0.015625)"/>
       </defs>
       <use xlink:href="#DejaVuSans-32"/>
       <use xlink:href="#DejaVuSans-30" x="63.623047"/>
       <use xlink:href="#DejaVuSans-30" x="127.246094"/>
       <use xlink:href="#DejaVuSans-30" x="190.869141"/>
       <use xlink:href="#DejaVuSans-2d" x="254.492188"/>
       <use xlink:href="#DejaVuSans-30" x="290.576172"/>
       <use xlink:href="#DejaVuSans-32" x="354.199219"/>
       <use xlink:href="#DejaVuSans-2d" x="417.822266"/>
       <use xlink:href="#DejaVuSans-30" x="453.90625"/>
       <use xlink:href="#DejaVuSans-31" x="517.529297"/>
      </g>
     </g>
    </g>
    <g id="xtick_2">
     <g id="line2d_3">
      <path d="M 176.98474 320.4 
L 176.98474 43.2 
" clip-path="url(#pcd11dfc7e0)" style="fill: none; stroke: #b0b0b0; stroke-width: 0.8; stroke-linecap: square"/>
     </g>
     <g id="line2d_4">
      <g>
       <use xlink:href="#m6aa327497f" x="176.98474" y="320.4" style="stroke: #000000; stroke-width: 0.8"/>
      </g>
     </g>
     <g id="text_2">
      <!-- 2001-02-01 -->
      <g transform="translate(147.926928 334.998438) scale(0.1 -0.1)">
       <use xlink:href="#DejaVuSans-32"/>
       <use xlink:href="#DejaVuSans-30" x="63.623047"/>
       <use xlink:href="#DejaVuSans-30" x="127.246094"/>
       <use xlink:href="#DejaVuSans-31" x="190.869141"/>
       <use xlink:href="#DejaVuSans-2d" x="254.492188"/>
       <use xlink:href="#DejaVuSans-30" x="290.576172"/>
       <use xlink:href="#DejaVuSans-32" x="354.199219"/>
       <use xlink:href="#DejaVuSans-2d" x="417.822266"/>
       <use xlink:href="#DejaVuSans-30" x="453.90625"/>
       <use xlink:href="#DejaVuSans-31" x="517.529297"/>
      </g>
     </g>
    </g>
    <g id="xtick_3">
     <g id="line2d_5">
      <path d="M 238.43748 320.4 
L 238.43748 43.2 
" clip-path="url(#pcd11dfc7e0)" style="fill: none; stroke: #b0b0b0; stroke-width: 0.8; stroke-linecap: square"/>
     </g>
     <g id="line2d_6">
      <g>
       <use xlink:href="#m6aa327497f" x="238.43748" y="320.4" style="stroke: #000000; stroke-width: 0.8"/>
      </g>
     </g>
     <g id="text_3">
      <!-- 2002-02-01 -->
      <g transform="translate(209.379668 334.998438) scale(0.1 -0.1)">
       <use xlink:href="#DejaVuSans-32"/>
       <use xlink:href="#DejaVuSans-30" x="63.623047"/>
       <use xlink:href="#DejaVuSans-30" x="127.246094"/>
       <use xlink:href="#DejaVuSans-32" x="190.869141"/>
       <use xlink:href="#DejaVuSans-2d" x="254.492188"/>
       <use xlink:href="#DejaVuSans-30" x="290.576172"/>
       <use xlink:href="#DejaVuSans-32" x="354.199219"/>
       <use xlink:href="#DejaVuSans-2d" x="417.822266"/>
       <use xlink:href="#DejaVuSans-30" x="453.90625"/>
       <use xlink:href="#DejaVuSans-31" x="517.529297"/>
      </g>
     </g>
    </g>
    <g id="xtick_4">
     <g id="line2d_7">
      <path d="M 299.89022 320.4 
L 299.89022 43.2 
" clip-path="url(#pcd11dfc7e0)" style="fill: none; stroke: #b0b0b0; stroke-width: 0.8; stroke-linecap: square"/>
     </g>
     <g id="line2d_8">
      <g>
       <use xlink:href="#m6aa327497f" x="299.89022" y="320.4" style="stroke: #000000; stroke-width: 0.8"/>
      </g>
     </g>
     <g id="text_4">
      <!-- 2003-02-01 -->
      <g transform="translate(270.832408 334.998438) scale(0.1 -0.1)">
       <defs>
        <path id="DejaVuSans-33" d="M 2597 2516 
Q 3050 2419 3304 2112 
Q 3559 1806 3559 1356 
Q 3559 666 3084 287 
Q 2609 -91 1734 -91 
Q 1441 -91 1130 -33 
Q 819 25 488 141 
L 488 750 
Q 750 597 1062 519 
Q 1375 441 1716 441 
Q 2309 441 2620 675 
Q 2931 909 2931 1356 
Q 2931 1769 2642 2001 
Q 2353 2234 1838 2234 
L 1294 2234 
L 1294 2753 
L 1863 2753 
Q 2328 2753 2575 2939 
Q 2822 3125 2822 3475 
Q 2822 3834 2567 4026 
Q 2313 4219 1838 4219 
Q 1578 4219 1281 4162 
Q 984 4106 628 3988 
L 628 4550 
Q 988 4650 1302 4700 
Q 1616 4750 1894 4750 
Q 2613 4750 3031 4423 
Q 3450 4097 3450 3541 
Q 3450 3153 3228 2886 
Q 3006 2619 2597 2516 
z
" transform="scale(0.015625)"/>
       </defs>
       <use xlink:href="#DejaVuSans-32"/>
       <use xlink:href="#DejaVuSans-30" x="63.623047"/>
       <use xlink:href="#DejaVuSans-30" x="127.246094"/>
       <use xlink:href="#DejaVuSans-33" x="190.869141"/>
       <use xlink:href="#DejaVuSans-2d" x="254.492188"/>
       <use xlink:href="#DejaVuSans-30" x="290.576172"/>
       <use xlink:href="#DejaVuSans-32" x="354.199219"/>
       <use xlink:href="#DejaVuSans-2d" x="417.822266"/>
       <use xlink:href="#DejaVuSans-30" x="453.90625"/>
       <use xlink:href="#DejaVuSans-31" x="517.529297"/>
      </g>
     </g>
    </g>
    <g id="xtick_5">
     <g id="line2d_9">
      <path d="M 361.342961 320.4 
L 361.342961 43.2 
" clip-path="url(#pcd11dfc7e0)" style="fill: none; stroke: #b0b0b0; stroke-width: 0.8; stroke-linecap: square"/>
     </g>
     <g id="line2d_10">
      <g>
       <use xlink:href="#m6aa327497f" x="361.342961" y="320.4" style="stroke: #000000; stroke-width: 0.8"/>
      </g>
     </g>
     <g id="text_5">
      <!-- 2004-02-01 -->
      <g transform="translate(332.285148 334.998438) scale(0.1 -0.1)">
       <defs>
        <path id="DejaVuSans-34" d="M 2419 4116 
L 825 1625 
L 2419 1625 
L 2419 4116 
z
M 2253 4666 
L 3047 4666 
L 3047 1625 
L 3713 1625 
L 3713 1100 
L 3047 1100 
L 3047 0 
L 2419 0 
L 2419 1100 
L 313 1100 
L 313 1709 
L 2253 4666 
z
" transform="scale(0.015625)"/>
       </defs>
       <use xlink:href="#DejaVuSans-32"/>
       <use xlink:href="#DejaVuSans-30" x="63.623047"/>
       <use xlink:href="#DejaVuSans-30" x="127.246094"/>
       <use xlink:href="#DejaVuSans-34" x="190.869141"/>
       <use xlink:href="#DejaVuSans-2d" x="254.492188"/>
       <use xlink:href="#DejaVuSans-30" x="290.576172"/>
       <use xlink:href="#DejaVuSans-32" x="354.199219"/>
       <use xlink:href="#DejaVuSans-2d" x="417.822266"/>
       <use xlink:href="#DejaVuSans-30" x="453.90625"/>
       <use xlink:href="#DejaVuSans-31" x="517.529297"/>
      </g>
     </g>
    </g>
    <g id="xtick_6">
     <g id="line2d_11">
      <path d="M 422.964064 320.4 
L 422.964064 43.2 
" clip-path="url(#pcd11dfc7e0)" style="fill: none; stroke: #b0b0b0; stroke-width: 0.8; stroke-linecap: square"/>
     </g>
     <g id="line2d_12">
      <g>
       <use xlink:href="#m6aa327497f" x="422.964064" y="320.4" style="stroke: #000000; stroke-width: 0.8"/>
      </g>
     </g>
     <g id="text_6">
      <!-- 2005-02-01 -->
      <g transform="translate(393.906252 334.998438) scale(0.1 -0.1)">
       <defs>
        <path id="DejaVuSans-35" d="M 691 4666 
L 3169 4666 
L 3169 4134 
L 1269 4134 
L 1269 2991 
Q 1406 3038 1543 3061 
Q 1681 3084 1819 3084 
Q 2600 3084 3056 2656 
Q 3513 2228 3513 1497 
Q 3513 744 3044 326 
Q 2575 -91 1722 -91 
Q 1428 -91 1123 -41 
Q 819 9 494 109 
L 494 744 
Q 775 591 1075 516 
Q 1375 441 1709 441 
Q 2250 441 2565 725 
Q 2881 1009 2881 1497 
Q 2881 1984 2565 2268 
Q 2250 2553 1709 2553 
Q 1456 2553 1204 2497 
Q 953 2441 691 2322 
L 691 4666 
z
" transform="scale(0.015625)"/>
       </defs>
       <use xlink:href="#DejaVuSans-32"/>
       <use xlink:href="#DejaVuSans-30" x="63.623047"/>
       <use xlink:href="#DejaVuSans-30" x="127.246094"/>
       <use xlink:href="#DejaVuSans-35" x="190.869141"/>
       <use xlink:href="#DejaVuSans-2d" x="254.492188"/>
       <use xlink:href="#DejaVuSans-30" x="290.576172"/>
       <use xlink:href="#DejaVuSans-32" x="354.199219"/>
       <use xlink:href="#DejaVuSans-2d" x="417.822266"/>
       <use xlink:href="#DejaVuSans-30" x="453.90625"/>
       <use xlink:href="#DejaVuSans-31" x="517.529297"/>
      </g>
     </g>
    </g>
    <g id="xtick_7">
     <g id="line2d_13">
      <path d="M 484.416804 320.4 
L 484.416804 43.2 
" clip-path="url(#pcd11dfc7e0)" style="fill: none; stroke: #b0b0b0; stroke-width: 0.8; stroke-linecap: square"/>
     </g>
     <g id="line2d_14">
      <g>
       <use xlink:href="#m6aa327497f" x="484.416804" y="320.4" style="stroke: #000000; stroke-width: 0.8"/>
      </g>
     </g>
     <g id="text_7">
      <!-- 2006-02-01 -->
      <g transform="translate(455.358992 334.998438) scale(0.1 -0.1)">
       <defs>
        <path id="DejaVuSans-36" d="M 2113 2584 
Q 1688 2584 1439 2293 
Q 1191 2003 1191 1497 
Q 1191 994 1439 701 
Q 1688 409 2113 409 
Q 2538 409 2786 701 
Q 3034 994 3034 1497 
Q 3034 2003 2786 2293 
Q 2538 2584 2113 2584 
z
M 3366 4563 
L 3366 3988 
Q 3128 4100 2886 4159 
Q 2644 4219 2406 4219 
Q 1781 4219 1451 3797 
Q 1122 3375 1075 2522 
Q 1259 2794 1537 2939 
Q 1816 3084 2150 3084 
Q 2853 3084 3261 2657 
Q 3669 2231 3669 1497 
Q 3669 778 3244 343 
Q 2819 -91 2113 -91 
Q 1303 -91 875 529 
Q 447 1150 447 2328 
Q 447 3434 972 4092 
Q 1497 4750 2381 4750 
Q 2619 4750 2861 4703 
Q 3103 4656 3366 4563 
z
" transform="scale(0.015625)"/>
       </defs>
       <use xlink:href="#DejaVuSans-32"/>
       <use xlink:href="#DejaVuSans-30" x="63.623047"/>
       <use xlink:href="#DejaVuSans-30" x="127.246094"/>
       <use xlink:href="#DejaVuSans-36" x="190.869141"/>
       <use xlink:href="#DejaVuSans-2d" x="254.492188"/>
       <use xlink:href="#DejaVuSans-30" x="290.576172"/>
       <use xlink:href="#DejaVuSans-32" x="354.199219"/>
       <use xlink:href="#DejaVuSans-2d" x="417.822266"/>
       <use xlink:href="#DejaVuSans-30" x="453.90625"/>
       <use xlink:href="#DejaVuSans-31" x="517.529297"/>
      </g>
     </g>
    </g>
    <g id="xtick_8">
     <g id="line2d_15">
      <path d="M 545.869545 320.4 
L 545.869545 43.2 
" clip-path="url(#pcd11dfc7e0)" style="fill: none; stroke: #b0b0b0; stroke-width: 0.8; stroke-linecap: square"/>
     </g>
     <g id="line2d_16">
      <g>
       <use xlink:href="#m6aa327497f" x="545.869545" y="320.4" style="stroke: #000000; stroke-width: 0.8"/>
      </g>
     </g>
     <g id="text_8">
      <!-- 2007-02-01 -->
      <g transform="translate(516.811732 334.998438) scale(0.1 -0.1)">
       <defs>
        <path id="DejaVuSans-37" d="M 525 4666 
L 3525 4666 
L 3525 4397 
L 1831 0 
L 1172 0 
L 2766 4134 
L 525 4134 
L 525 4666 
z
" transform="scale(0.015625)"/>
       </defs>
       <use xlink:href="#DejaVuSans-32"/>
       <use xlink:href="#DejaVuSans-30" x="63.623047"/>
       <use xlink:href="#DejaVuSans-30" x="127.246094"/>
       <use xlink:href="#DejaVuSans-37" x="190.869141"/>
       <use xlink:href="#DejaVuSans-2d" x="254.492188"/>
       <use xlink:href="#DejaVuSans-30" x="290.576172"/>
       <use xlink:href="#DejaVuSans-32" x="354.199219"/>
       <use xlink:href="#DejaVuSans-2d" x="417.822266"/>
       <use xlink:href="#DejaVuSans-30" x="453.90625"/>
       <use xlink:href="#DejaVuSans-31" x="517.529297"/>
      </g>
     </g>
    </g>
    <g id="xtick_9">
     <g id="line2d_17">
      <path d="M 607.322285 320.4 
L 607.322285 43.2 
" clip-path="url(#pcd11dfc7e0)" style="fill: none; stroke: #b0b0b0; stroke-width: 0.8; stroke-linecap: square"/>
     </g>
     <g id="line2d_18">
      <g>
       <use xlink:href="#m6aa327497f" x="607.322285" y="320.4" style="stroke: #000000; stroke-width: 0.8"/>
      </g>
     </g>
     <g id="text_9">
      <!-- 2008-02-01 -->
      <g transform="translate(578.264472 334.998438) scale(0.1 -0.1)">
       <defs>
        <path id="DejaVuSans-38" d="M 2034 2216 
Q 1584 2216 1326 1975 
Q 1069 1734 1069 1313 
Q 1069 891 1326 650 
Q 1584 409 2034 409 
Q 2484 409 2743 651 
Q 3003 894 3003 1313 
Q 3003 1734 2745 1975 
Q 2488 2216 2034 2216 
z
M 1403 2484 
Q 997 2584 770 2862 
Q 544 3141 544 3541 
Q 544 4100 942 4425 
Q 1341 4750 2034 4750 
Q 2731 4750 3128 4425 
Q 3525 4100 3525 3541 
Q 3525 3141 3298 2862 
Q 3072 2584 2669 2484 
Q 3125 2378 3379 2068 
Q 3634 1759 3634 1313 
Q 3634 634 3220 271 
Q 2806 -91 2034 -91 
Q 1263 -91 848 271 
Q 434 634 434 1313 
Q 434 1759 690 2068 
Q 947 2378 1403 2484 
z
M 1172 3481 
Q 1172 3119 1398 2916 
Q 1625 2713 2034 2713 
Q 2441 2713 2670 2916 
Q 2900 3119 2900 3481 
Q 2900 3844 2670 4047 
Q 2441 4250 2034 4250 
Q 1625 4250 1398 4047 
Q 1172 3844 1172 3481 
z
" transform="scale(0.015625)"/>
       </defs>
       <use xlink:href="#DejaVuSans-32"/>
       <use xlink:href="#DejaVuSans-30" x="63.623047"/>
       <use xlink:href="#DejaVuSans-30" x="127.246094"/>
       <use xlink:href="#DejaVuSans-38" x="190.869141"/>
       <use xlink:href="#DejaVuSans-2d" x="254.492188"/>
       <use xlink:href="#DejaVuSans-30" x="290.576172"/>
       <use xlink:href="#DejaVuSans-32" x="354.199219"/>
       <use xlink:href="#DejaVuSans-2d" x="417.822266"/>
       <use xlink:href="#DejaVuSans-30" x="453.90625"/>
       <use xlink:href="#DejaVuSans-31" x="517.529297"/>
      </g>
     </g>
    </g>
    <g id="text_10">
     <!-- Дата -->
     <g transform="translate(356.053125 348.676562) scale(0.1 -0.1)">
      <defs>
       <path id="DejaVuSans-414" d="M 1459 531 
L 3522 531 
L 3522 4134 
L 2006 4134 
L 2006 3472 
Q 2006 1913 1656 878 
Q 1584 666 1459 531 
z
M 538 531 
Q 956 728 1075 1103 
Q 1378 2066 1378 3784 
L 1378 4666 
L 4153 4666 
L 4153 531 
L 4684 531 
L 4684 -1003 
L 4153 -1003 
L 4153 0 
L 847 0 
L 847 -1003 
L 316 -1003 
L 316 531 
L 538 531 
z
" transform="scale(0.015625)"/>
       <path id="DejaVuSans-430" d="M 2194 1759 
Q 1497 1759 1228 1600 
Q 959 1441 959 1056 
Q 959 750 1161 570 
Q 1363 391 1709 391 
Q 2188 391 2477 730 
Q 2766 1069 2766 1631 
L 2766 1759 
L 2194 1759 
z
M 3341 1997 
L 3341 0 
L 2766 0 
L 2766 531 
Q 2569 213 2275 61 
Q 1981 -91 1556 -91 
Q 1019 -91 701 211 
Q 384 513 384 1019 
Q 384 1609 779 1909 
Q 1175 2209 1959 2209 
L 2766 2209 
L 2766 2266 
Q 2766 2663 2505 2880 
Q 2244 3097 1772 3097 
Q 1472 3097 1187 3025 
Q 903 2953 641 2809 
L 641 3341 
Q 956 3463 1253 3523 
Q 1550 3584 1831 3584 
Q 2591 3584 2966 3190 
Q 3341 2797 3341 1997 
z
" transform="scale(0.015625)"/>
       <path id="DejaVuSans-442" d="M 188 3500 
L 3541 3500 
L 3541 3041 
L 2147 3041 
L 2147 0 
L 1581 0 
L 1581 3041 
L 188 3041 
L 188 3500 
z
" transform="scale(0.015625)"/>
      </defs>
      <use xlink:href="#DejaVuSans-414"/>
      <use xlink:href="#DejaVuSans-430" x="78.125"/>
      <use xlink:href="#DejaVuSans-442" x="139.404297"/>
      <use xlink:href="#DejaVuSans-430" x="197.65625"/>
     </g>
    </g>
   </g>
   <g id="matplotlib.axis_2">
    <g id="ytick_1">
     <g id="line2d_19">
      <path d="M 90 273.00494 
L 648 273.00494 
" clip-path="url(#pcd11dfc7e0)" style="fill: none; stroke: #b0b0b0; stroke-width: 0.8; stroke-linecap: square"/>
     </g>
     <g id="line2d_20">
      <defs>
       <path id="mf521e2df99" d="M 0 0 
L -3.5 0 
" style="stroke: #000000; stroke-width: 0.8"/>
      </defs>
      <g>
       <use xlink:href="#mf521e2df99" x="90" y="273.00494" style="stroke: #000000; stroke-width: 0.8"/>
      </g>
     </g>
     <g id="text_11">
      <!-- 100 -->
      <g transform="translate(63.9125 276.804158) scale(0.1 -0.1)">
       <use xlink:href="#DejaVuSans-31"/>
       <use xlink:href="#DejaVuSans-30" x="63.623047"/>
       <use xlink:href="#DejaVuSans-30" x="127.246094"/>
      </g>
     </g>
    </g>
    <g id="ytick_2">
     <g id="line2d_21">
      <path d="M 90 223.707404 
L 648 223.707404 
" clip-path="url(#pcd11dfc7e0)" style="fill: none; stroke: #b0b0b0; stroke-width: 0.8; stroke-linecap: square"/>
     </g>
     <g id="line2d_22">
      <g>
       <use xlink:href="#mf521e2df99" x="90" y="223.707404" style="stroke: #000000; stroke-width: 0.8"/>
      </g>
     </g>
     <g id="text_12">
      <!-- 150 -->
      <g transform="translate(63.9125 227.506623) scale(0.1 -0.1)">
       <use xlink:href="#DejaVuSans-31"/>
       <use xlink:href="#DejaVuSans-35" x="63.623047"/>
       <use xlink:href="#DejaVuSans-30" x="127.246094"/>
      </g>
     </g>
    </g>
    <g id="ytick_3">
     <g id="line2d_23">
      <path d="M 90 174.409869 
L 648 174.409869 
" clip-path="url(#pcd11dfc7e0)" style="fill: none; stroke: #b0b0b0; stroke-width: 0.8; stroke-linecap: square"/>
     </g>
     <g id="line2d_24">
      <g>
       <use xlink:href="#mf521e2df99" x="90" y="174.409869" style="stroke: #000000; stroke-width: 0.8"/>
      </g>
     </g>
     <g id="text_13">
      <!-- 200 -->
      <g transform="translate(63.9125 178.209088) scale(0.1 -0.1)">
       <use xlink:href="#DejaVuSans-32"/>
       <use xlink:href="#DejaVuSans-30" x="63.623047"/>
       <use xlink:href="#DejaVuSans-30" x="127.246094"/>
      </g>
     </g>
    </g>
    <g id="ytick_4">
     <g id="line2d_25">
      <path d="M 90 125.112334 
L 648 125.112334 
" clip-path="url(#pcd11dfc7e0)" style="fill: none; stroke: #b0b0b0; stroke-width: 0.8; stroke-linecap: square"/>
     </g>
     <g id="line2d_26">
      <g>
       <use xlink:href="#mf521e2df99" x="90" y="125.112334" style="stroke: #000000; stroke-width: 0.8"/>
      </g>
     </g>
     <g id="text_14">
      <!-- 250 -->
      <g transform="translate(63.9125 128.911553) scale(0.1 -0.1)">
       <use xlink:href="#DejaVuSans-32"/>
       <use xlink:href="#DejaVuSans-35" x="63.623047"/>
       <use xlink:href="#DejaVuSans-30" x="127.246094"/>
      </g>
     </g>
    </g>
    <g id="ytick_5">
     <g id="line2d_27">
      <path d="M 90 75.814799 
L 648 75.814799 
" clip-path="url(#pcd11dfc7e0)" style="fill: none; stroke: #b0b0b0; stroke-width: 0.8; stroke-linecap: square"/>
     </g>
     <g id="line2d_28">
      <g>
       <use xlink:href="#mf521e2df99" x="90" y="75.814799" style="stroke: #000000; stroke-width: 0.8"/>
      </g>
     </g>
     <g id="text_15">
      <!-- 300 -->
      <g transform="translate(63.9125 79.614018) scale(0.1 -0.1)">
       <use xlink:href="#DejaVuSans-33"/>
       <use xlink:href="#DejaVuSans-30" x="63.623047"/>
       <use xlink:href="#DejaVuSans-30" x="127.246094"/>
      </g>
     </g>
    </g>
    <g id="text_16">
     <!-- Значение -->
     <g transform="translate(57.832812 206.963281) rotate(-90) scale(0.1 -0.1)">
      <defs>
       <path id="DejaVuSans-417" d="M 1828 4750 
Q 2597 4750 3084 4423 
Q 3572 4097 3572 3541 
Q 3572 3153 3350 2886 
Q 3128 2619 2719 2516 
Q 3172 2419 3426 2112 
Q 3681 1806 3681 1356 
Q 3681 638 3126 273 
Q 2572 -91 1828 -91 
Q 1447 -91 1003 12 
Q 559 116 422 203 
L 422 853 
Q 900 575 1164 508 
Q 1428 441 1816 441 
Q 2403 441 2728 666 
Q 3053 891 3053 1356 
Q 3053 1769 2764 2001 
Q 2475 2234 1866 2234 
L 1228 2234 
L 1228 2753 
L 1891 2753 
Q 2450 2753 2697 2939 
Q 2944 3125 2944 3475 
Q 2944 3834 2689 4026 
Q 2434 4219 1816 4219 
Q 1397 4219 1253 4181 
Q 1109 4144 469 3903 
L 469 4519 
Q 822 4644 1190 4697 
Q 1559 4750 1828 4750 
z
" transform="scale(0.015625)"/>
       <path id="DejaVuSans-43d" d="M 581 3500 
L 1159 3500 
L 1159 2072 
L 3025 2072 
L 3025 3500 
L 3603 3500 
L 3603 0 
L 3025 0 
L 3025 1613 
L 1159 1613 
L 1159 0 
L 581 0 
L 581 3500 
z
" transform="scale(0.015625)"/>
       <path id="DejaVuSans-447" d="M 2625 0 
L 2625 1472 
L 1553 1472 
Q 1075 1472 756 1769 
Q 469 2038 469 2613 
L 469 3500 
L 1044 3500 
L 1044 2666 
Q 1044 2300 1206 2116 
Q 1372 1931 1697 1931 
L 2625 1931 
L 2625 3500 
L 3200 3500 
L 3200 0 
L 2625 0 
z
" transform="scale(0.015625)"/>
       <path id="DejaVuSans-435" d="M 3597 1894 
L 3597 1613 
L 953 1613 
Q 991 1019 1311 708 
Q 1631 397 2203 397 
Q 2534 397 2845 478 
Q 3156 559 3463 722 
L 3463 178 
Q 3153 47 2828 -22 
Q 2503 -91 2169 -91 
Q 1331 -91 842 396 
Q 353 884 353 1716 
Q 353 2575 817 3079 
Q 1281 3584 2069 3584 
Q 2775 3584 3186 3129 
Q 3597 2675 3597 1894 
z
M 3022 2063 
Q 3016 2534 2758 2815 
Q 2500 3097 2075 3097 
Q 1594 3097 1305 2825 
Q 1016 2553 972 2059 
L 3022 2063 
z
" transform="scale(0.015625)"/>
       <path id="DejaVuSans-438" d="M 3578 3500 
L 3578 0 
L 3006 0 
L 3006 2809 
L 1319 0 
L 581 0 
L 581 3500 
L 1153 3500 
L 1153 697 
L 2838 3500 
L 3578 3500 
z
" transform="scale(0.015625)"/>
      </defs>
      <use xlink:href="#DejaVuSans-417"/>
      <use xlink:href="#DejaVuSans-43d" x="64.111328"/>
      <use xlink:href="#DejaVuSans-430" x="129.492188"/>
      <use xlink:href="#DejaVuSans-447" x="190.771484"/>
      <use xlink:href="#DejaVuSans-435" x="249.853516"/>
      <use xlink:href="#DejaVuSans-43d" x="311.376953"/>
      <use xlink:href="#DejaVuSans-438" x="376.757812"/>
      <use xlink:href="#DejaVuSans-435" x="441.748047"/>
     </g>
    </g>
   </g>
   <g id="line2d_29">
    <path d="M 115.363636 307.217429 
L 120.414547 301.59751 
L 125.458442 299.527013 
L 130.677715 294.301475 
L 135.728625 294.40007 
L 140.947899 296.766351 
L 145.998809 295.977591 
L 151.218083 300.019989 
L 156.437357 304.949742 
L 161.495282 298.541063 
L 166.714556 302.18908 
L 171.765466 294.40007 
L 176.98474 285.132133 
L 181.867287 283.357422 
L 186.911182 277.244528 
L 192.130455 280.695355 
L 197.181366 271.427418 
L 202.400639 266.892045 
L 207.45155 266.892045 
L 212.670823 264.032788 
L 217.890097 261.567911 
L 222.948022 261.567911 
L 228.167296 260.976341 
L 233.218206 251.412619 
L 238.43748 243.919394 
L 243.320027 246.778651 
L 248.363922 241.553112 
L 253.583196 242.341873 
L 258.634106 232.975341 
L 263.85338 230.017489 
L 268.90429 234.651457 
L 274.123563 230.411869 
L 279.342837 225.186331 
L 284.400763 219.960792 
L 289.620036 224.20038 
L 294.670947 220.453767 
L 299.89022 215.129633 
L 304.772767 213.847897 
L 309.816662 207.833598 
L 315.035936 200.833348 
L 320.086846 204.777151 
L 325.30612 209.608309 
L 330.35703 203.889795 
L 335.576304 197.185331 
L 340.795577 195.312024 
L 345.853503 195.410619 
L 351.072777 197.678306 
L 356.123687 189.39632 
L 361.342961 193.537313 
L 366.393871 188.607559 
L 371.437766 182.79045 
L 376.657039 186.438468 
L 381.70795 188.410369 
L 386.927223 179.931193 
L 391.978134 177.367721 
L 397.197407 177.860697 
L 402.416681 178.945243 
L 407.474607 178.649457 
L 412.69388 182.691855 
L 417.74479 179.438218 
L 422.964064 173.423919 
L 427.846611 175.7902 
L 432.890506 177.071936 
L 438.10978 178.452267 
L 443.16069 168.59276 
L 448.379964 159.620609 
L 453.430874 156.465567 
L 458.650148 151.535813 
L 463.869421 154.19788 
L 468.927347 154.19788 
L 474.14662 145.127134 
L 479.197531 135.957792 
L 484.416804 131.323824 
L 489.299351 124.717954 
L 494.343246 127.281426 
L 499.56252 123.140433 
L 504.61343 126.492665 
L 509.832704 121.267127 
L 514.883614 123.140433 
L 520.102888 124.027789 
L 525.322161 126.788451 
L 530.380087 122.351672 
L 535.599361 121.365722 
L 540.650271 114.759852 
L 545.869545 115.055637 
L 550.752091 108.252577 
L 555.795986 106.379271 
L 561.01526 107.858197 
L 566.06617 103.815799 
L 571.285444 96.125384 
L 576.336354 89.716704 
L 581.555628 79.955792 
L 586.774902 83.110834 
L 591.832827 81.631908 
L 597.052101 76.011989 
L 602.103011 66.448268 
L 607.322285 63.490415 
L 612.373195 63.490415 
L 617.41709 64.772151 
L 622.636364 55.8 
" clip-path="url(#pcd11dfc7e0)" style="fill: none; stroke: #1f77b4; stroke-width: 1.5; stroke-linecap: square"/>
    <defs>
     <path id="mfbbd1886ec" d="M 0 0 
L 0.5 0 
M 0 0 
L -0.25 -0.4 
M 0 0 
L -0.25 0.4 
" style="stroke: #1f77b4"/>
    </defs>
    <g clip-path="url(#pcd11dfc7e0)">
     <use xlink:href="#mfbbd1886ec" x="115.363636" y="307.217429" style="fill: #1f77b4; stroke: #1f77b4"/>
     <use xlink:href="#mfbbd1886ec" x="120.414547" y="301.59751" style="fill: #1f77b4; stroke: #1f77b4"/>
     <use xlink:href="#mfbbd1886ec" x="125.458442" y="299.527013" style="fill: #1f77b4; stroke: #1f77b4"/>
     <use xlink:href="#mfbbd1886ec" x="130.677715" y="294.301475" style="fill: #1f77b4; stroke: #1f77b4"/>
     <use xlink:href="#mfbbd1886ec" x="135.728625" y="294.40007" style="fill: #1f77b4; stroke: #1f77b4"/>
     <use xlink:href="#mfbbd1886ec" x="140.947899" y="296.766351" style="fill: #1f77b4; stroke: #1f77b4"/>
     <use xlink:href="#mfbbd1886ec" x="145.998809" y="295.977591" style="fill: #1f77b4; stroke: #1f77b4"/>
     <use xlink:href="#mfbbd1886ec" x="151.218083" y="300.019989" style="fill: #1f77b4; stroke: #1f77b4"/>
     <use xlink:href="#mfbbd1886ec" x="156.437357" y="304.949742" style="fill: #1f77b4; stroke: #1f77b4"/>
     <use xlink:href="#mfbbd1886ec" x="161.495282" y="298.541063" style="fill: #1f77b4; stroke: #1f77b4"/>
     <use xlink:href="#mfbbd1886ec" x="166.714556" y="302.18908" style="fill: #1f77b4; stroke: #1f77b4"/>
     <use xlink:href="#mfbbd1886ec" x="171.765466" y="294.40007" style="fill: #1f77b4; stroke: #1f77b4"/>
     <use xlink:href="#mfbbd1886ec" x="176.98474" y="285.132133" style="fill: #1f77b4; stroke: #1f77b4"/>
     <use xlink:href="#mfbbd1886ec" x="181.867287" y="283.357422" style="fill: #1f77b4; stroke: #1f77b4"/>
     <use xlink:href="#mfbbd1886ec" x="186.911182" y="277.244528" style="fill: #1f77b4; stroke: #1f77b4"/>
     <use xlink:href="#mfbbd1886ec" x="192.130455" y="280.695355" style="fill: #1f77b4; stroke: #1f77b4"/>
     <use xlink:href="#mfbbd1886ec" x="197.181366" y="271.427418" style="fill: #1f77b4; stroke: #1f77b4"/>
     <use xlink:href="#mfbbd1886ec" x="202.400639" y="266.892045" style="fill: #1f77b4; stroke: #1f77b4"/>
     <use xlink:href="#mfbbd1886ec" x="207.45155" y="266.892045" style="fill: #1f77b4; stroke: #1f77b4"/>
     <use xlink:href="#mfbbd1886ec" x="212.670823" y="264.032788" style="fill: #1f77b4; stroke: #1f77b4"/>
     <use xlink:href="#mfbbd1886ec" x="217.890097" y="261.567911" style="fill: #1f77b4; stroke: #1f77b4"/>
     <use xlink:href="#mfbbd1886ec" x="222.948022" y="261.567911" style="fill: #1f77b4; stroke: #1f77b4"/>
     <use xlink:href="#mfbbd1886ec" x="228.167296" y="260.976341" style="fill: #1f77b4; stroke: #1f77b4"/>
     <use xlink:href="#mfbbd1886ec" x="233.218206" y="251.412619" style="fill: #1f77b4; stroke: #1f77b4"/>
     <use xlink:href="#mfbbd1886ec" x="238.43748" y="243.919394" style="fill: #1f77b4; stroke: #1f77b4"/>
     <use xlink:href="#mfbbd1886ec" x="243.320027" y="246.778651" style="fill: #1f77b4; stroke: #1f77b4"/>
     <use xlink:href="#mfbbd1886ec" x="248.363922" y="241.553112" style="fill: #1f77b4; stroke: #1f77b4"/>
     <use xlink:href="#mfbbd1886ec" x="253.583196" y="242.341873" style="fill: #1f77b4; stroke: #1f77b4"/>
     <use xlink:href="#mfbbd1886ec" x="258.634106" y="232.975341" style="fill: #1f77b4; stroke: #1f77b4"/>
     <use xlink:href="#mfbbd1886ec" x="263.85338" y="230.017489" style="fill: #1f77b4; stroke: #1f77b4"/>
     <use xlink:href="#mfbbd1886ec" x="268.90429" y="234.651457" style="fill: #1f77b4; stroke: #1f77b4"/>
     <use xlink:href="#mfbbd1886ec" x="274.123563" y="230.411869" style="fill: #1f77b4; stroke: #1f77b4"/>
     <use xlink:href="#mfbbd1886ec" x="279.342837" y="225.186331" style="fill: #1f77b4; stroke: #1f77b4"/>
     <use xlink:href="#mfbbd1886ec" x="284.400763" y="219.960792" style="fill: #1f77b4; stroke: #1f77b4"/>
     <use xlink:href="#mfbbd1886ec" x="289.620036" y="224.20038" style="fill: #1f77b4; stroke: #1f77b4"/>
     <use xlink:href="#mfbbd1886ec" x="294.670947" y="220.453767" style="fill: #1f77b4; stroke: #1f77b4"/>
     <use xlink:href="#mfbbd1886ec" x="299.89022" y="215.129633" style="fill: #1f77b4; stroke: #1f77b4"/>
     <use xlink:href="#mfbbd1886ec" x="304.772767" y="213.847897" style="fill: #1f77b4; stroke: #1f77b4"/>
     <use xlink:href="#mfbbd1886ec" x="309.816662" y="207.833598" style="fill: #1f77b4; stroke: #1f77b4"/>
     <use xlink:href="#mfbbd1886ec" x="315.035936" y="200.833348" style="fill: #1f77b4; stroke: #1f77b4"/>
     <use xlink:href="#mfbbd1886ec" x="320.086846" y="204.777151" style="fill: #1f77b4; stroke: #1f77b4"/>
     <use xlink:href="#mfbbd1886ec" x="325.30612" y="209.608309" style="fill: #1f77b4; stroke: #1f77b4"/>
     <use xlink:href="#mfbbd1886ec" x="330.35703" y="203.889795" style="fill: #1f77b4; stroke: #1f77b4"/>
     <use xlink:href="#mfbbd1886ec" x="335.576304" y="197.185331" style="fill: #1f77b4; stroke: #1f77b4"/>
     <use xlink:href="#mfbbd1886ec" x="340.795577" y="195.312024" style="fill: #1f77b4; stroke: #1f77b4"/>
     <use xlink:href="#mfbbd1886ec" x="345.853503" y="195.410619" style="fill: #1f77b4; stroke: #1f77b4"/>
     <use xlink:href="#mfbbd1886ec" x="351.072777" y="197.678306" style="fill: #1f77b4; stroke: #1f77b4"/>
     <use xlink:href="#mfbbd1886ec" x="356.123687" y="189.39632" style="fill: #1f77b4; stroke: #1f77b4"/>
     <use xlink:href="#mfbbd1886ec" x="361.342961" y="193.537313" style="fill: #1f77b4; stroke: #1f77b4"/>
     <use xlink:href="#mfbbd1886ec" x="366.393871" y="188.607559" style="fill: #1f77b4; stroke: #1f77b4"/>
     <use xlink:href="#mfbbd1886ec" x="371.437766" y="182.79045" style="fill: #1f77b4; stroke: #1f77b4"/>
     <use xlink:href="#mfbbd1886ec" x="376.657039" y="186.438468" style="fill: #1f77b4; stroke: #1f77b4"/>
     <use xlink:href="#mfbbd1886ec" x="381.70795" y="188.410369" style="fill: #1f77b4; stroke: #1f77b4"/>
     <use xlink:href="#mfbbd1886ec" x="386.927223" y="179.931193" style="fill: #1f77b4; stroke: #1f77b4"/>
     <use xlink:href="#mfbbd1886ec" x="391.978134" y="177.367721" style="fill: #1f77b4; stroke: #1f77b4"/>
     <use xlink:href="#mfbbd1886ec" x="397.197407" y="177.860697" style="fill: #1f77b4; stroke: #1f77b4"/>
     <use xlink:href="#mfbbd1886ec" x="402.416681" y="178.945243" style="fill: #1f77b4; stroke: #1f77b4"/>
     <use xlink:href="#mfbbd1886ec" x="407.474607" y="178.649457" style="fill: #1f77b4; stroke: #1f77b4"/>
     <use xlink:href="#mfbbd1886ec" x="412.69388" y="182.691855" style="fill: #1f77b4; stroke: #1f77b4"/>
     <use xlink:href="#mfbbd1886ec" x="417.74479" y="179.438218" style="fill: #1f77b4; stroke: #1f77b4"/>
     <use xlink:href="#mfbbd1886ec" x="422.964064" y="173.423919" style="fill: #1f77b4; stroke: #1f77b4"/>
     <use xlink:href="#mfbbd1886ec" x="427.846611" y="175.7902" style="fill: #1f77b4; stroke: #1f77b4"/>
     <use xlink:href="#mfbbd1886ec" x="432.890506" y="177.071936" style="fill: #1f77b4; stroke: #1f77b4"/>
     <use xlink:href="#mfbbd1886ec" x="438.10978" y="178.452267" style="fill: #1f77b4; stroke: #1f77b4"/>
     <use xlink:href="#mfbbd1886ec" x="443.16069" y="168.59276" style="fill: #1f77b4; stroke: #1f77b4"/>
     <use xlink:href="#mfbbd1886ec" x="448.379964" y="159.620609" style="fill: #1f77b4; stroke: #1f77b4"/>
     <use xlink:href="#mfbbd1886ec" x="453.430874" y="156.465567" style="fill: #1f77b4; stroke: #1f77b4"/>
     <use xlink:href="#mfbbd1886ec" x="458.650148" y="151.535813" style="fill: #1f77b4; stroke: #1f77b4"/>
     <use xlink:href="#mfbbd1886ec" x="463.869421" y="154.19788" style="fill: #1f77b4; stroke: #1f77b4"/>
     <use xlink:href="#mfbbd1886ec" x="468.927347" y="154.19788" style="fill: #1f77b4; stroke: #1f77b4"/>
     <use xlink:href="#mfbbd1886ec" x="474.14662" y="145.127134" style="fill: #1f77b4; stroke: #1f77b4"/>
     <use xlink:href="#mfbbd1886ec" x="479.197531" y="135.957792" style="fill: #1f77b4; stroke: #1f77b4"/>
     <use xlink:href="#mfbbd1886ec" x="484.416804" y="131.323824" style="fill: #1f77b4; stroke: #1f77b4"/>
     <use xlink:href="#mfbbd1886ec" x="489.299351" y="124.717954" style="fill: #1f77b4; stroke: #1f77b4"/>
     <use xlink:href="#mfbbd1886ec" x="494.343246" y="127.281426" style="fill: #1f77b4; stroke: #1f77b4"/>
     <use xlink:href="#mfbbd1886ec" x="499.56252" y="123.140433" style="fill: #1f77b4; stroke: #1f77b4"/>
     <use xlink:href="#mfbbd1886ec" x="504.61343" y="126.492665" style="fill: #1f77b4; stroke: #1f77b4"/>
     <use xlink:href="#mfbbd1886ec" x="509.832704" y="121.267127" style="fill: #1f77b4; stroke: #1f77b4"/>
     <use xlink:href="#mfbbd1886ec" x="514.883614" y="123.140433" style="fill: #1f77b4; stroke: #1f77b4"/>
     <use xlink:href="#mfbbd1886ec" x="520.102888" y="124.027789" style="fill: #1f77b4; stroke: #1f77b4"/>
     <use xlink:href="#mfbbd1886ec" x="525.322161" y="126.788451" style="fill: #1f77b4; stroke: #1f77b4"/>
     <use xlink:href="#mfbbd1886ec" x="530.380087" y="122.351672" style="fill: #1f77b4; stroke: #1f77b4"/>
     <use xlink:href="#mfbbd1886ec" x="535.599361" y="121.365722" style="fill: #1f77b4; stroke: #1f77b4"/>
     <use xlink:href="#mfbbd1886ec" x="540.650271" y="114.759852" style="fill: #1f77b4; stroke: #1f77b4"/>
     <use xlink:href="#mfbbd1886ec" x="545.869545" y="115.055637" style="fill: #1f77b4; stroke: #1f77b4"/>
     <use xlink:href="#mfbbd1886ec" x="550.752091" y="108.252577" style="fill: #1f77b4; stroke: #1f77b4"/>
     <use xlink:href="#mfbbd1886ec" x="555.795986" y="106.379271" style="fill: #1f77b4; stroke: #1f77b4"/>
     <use xlink:href="#mfbbd1886ec" x="561.01526" y="107.858197" style="fill: #1f77b4; stroke: #1f77b4"/>
     <use xlink:href="#mfbbd1886ec" x="566.06617" y="103.815799" style="fill: #1f77b4; stroke: #1f77b4"/>
     <use xlink:href="#mfbbd1886ec" x="571.285444" y="96.125384" style="fill: #1f77b4; stroke: #1f77b4"/>
     <use xlink:href="#mfbbd1886ec" x="576.336354" y="89.716704" style="fill: #1f77b4; stroke: #1f77b4"/>
     <use xlink:href="#mfbbd1886ec" x="581.555628" y="79.955792" style="fill: #1f77b4; stroke: #1f77b4"/>
     <use xlink:href="#mfbbd1886ec" x="586.774902" y="83.110834" style="fill: #1f77b4; stroke: #1f77b4"/>
     <use xlink:href="#mfbbd1886ec" x="591.832827" y="81.631908" style="fill: #1f77b4; stroke: #1f77b4"/>
     <use xlink:href="#mfbbd1886ec" x="597.052101" y="76.011989" style="fill: #1f77b4; stroke: #1f77b4"/>
     <use xlink:href="#mfbbd1886ec" x="602.103011" y="66.448268" style="fill: #1f77b4; stroke: #1f77b4"/>
     <use xlink:href="#mfbbd1886ec" x="607.322285" y="63.490415" style="fill: #1f77b4; stroke: #1f77b4"/>
     <use xlink:href="#mfbbd1886ec" x="612.373195" y="63.490415" style="fill: #1f77b4; stroke: #1f77b4"/>
     <use xlink:href="#mfbbd1886ec" x="617.41709" y="64.772151" style="fill: #1f77b4; stroke: #1f77b4"/>
     <use xlink:href="#mfbbd1886ec" x="622.636364" y="55.8" style="fill: #1f77b4; stroke: #1f77b4"/>
    </g>
   </g>
   <g id="line2d_30">
    <path d="M 115.363636 307.8 
L 120.414547 305.504897 
L 125.458442 303.207314 
L 130.677715 300.90725 
L 135.728625 298.604705 
L 140.947899 296.299679 
L 145.998809 293.992173 
L 151.218083 291.682186 
L 156.437357 289.369718 
L 161.495282 287.05477 
L 166.714556 284.737341 
L 171.765466 282.417431 
L 176.98474 280.095041 
L 181.867287 277.77017 
L 186.911182 275.442818 
L 192.130455 273.112986 
L 197.181366 270.780673 
L 202.400639 268.445879 
L 207.45155 266.108604 
L 212.670823 263.768849 
L 217.890097 261.426613 
L 222.948022 259.081896 
L 228.167296 256.734699 
L 233.218206 254.385021 
L 238.43748 252.032863 
L 243.320027 249.678223 
L 248.363922 247.321103 
L 253.583196 244.961502 
L 258.634106 242.599421 
L 263.85338 240.234859 
L 268.90429 237.867816 
L 274.123563 235.498293 
L 279.342837 233.126289 
L 284.400763 230.751804 
L 289.620036 228.374838 
L 294.670947 225.995392 
L 299.89022 223.613465 
L 304.772767 221.229057 
L 309.816662 218.842169 
L 315.035936 216.4528 
L 320.086846 214.06095 
L 325.30612 211.66662 
L 330.35703 209.269809 
L 335.576304 206.870517 
L 340.795577 204.468745 
L 345.853503 202.064492 
L 351.072777 199.657758 
L 356.123687 197.248543 
L 361.342961 194.836848 
L 366.393871 192.422672 
L 371.437766 190.006016 
L 376.657039 187.586878 
L 381.70795 185.16526 
L 386.927223 182.741162 
L 391.978134 180.314582 
L 397.197407 177.885522 
L 402.416681 175.453982 
L 407.474607 173.01996 
L 412.69388 170.583458 
L 417.74479 168.144475 
L 422.964064 165.703012 
L 427.846611 163.259068 
L 432.890506 160.812643 
L 438.10978 158.363737 
L 443.16069 155.912351 
L 448.379964 153.458484 
L 453.430874 151.002137 
L 458.650148 148.543308 
L 463.869421 146.081999 
L 468.927347 143.61821 
L 474.14662 141.151939 
L 479.197531 138.683188 
L 484.416804 136.211957 
L 489.299351 133.738244 
L 494.343246 131.262051 
L 499.56252 128.783377 
L 504.61343 126.302223 
L 509.832704 123.818588 
L 514.883614 121.332472 
L 520.102888 118.843875 
L 525.322161 116.352798 
L 530.380087 113.85924 
L 535.599361 111.363201 
L 540.650271 108.864682 
L 545.869545 106.363682 
L 550.752091 103.860201 
L 555.795986 101.35424 
L 561.01526 98.845798 
L 566.06617 96.334875 
L 571.285444 93.821471 
L 576.336354 91.305587 
L 581.555628 88.787222 
L 586.774902 86.266377 
L 591.832827 83.743051 
L 597.052101 81.217244 
L 602.103011 78.688956 
L 607.322285 76.158188 
L 612.373195 73.624939 
L 617.41709 71.089209 
L 622.636364 68.550999 
" clip-path="url(#pcd11dfc7e0)" style="fill: none; stroke-dasharray: 1.5,2.475; stroke-dashoffset: 0; stroke: #ff0000; stroke-width: 1.5"/>
   </g>
   <g id="patch_3">
    <path d="M 90 320.4 
L 90 43.2 
" style="fill: none; stroke: #000000; stroke-width: 0.8; stroke-linejoin: miter; stroke-linecap: square"/>
   </g>
   <g id="patch_4">
    <path d="M 648 320.4 
L 648 43.2 
" style="fill: none; stroke: #000000; stroke-width: 0.8; stroke-linejoin: miter; stroke-linecap: square"/>
   </g>
   <g id="patch_5">
    <path d="M 90 320.4 
L 648 320.4 
" style="fill: none; stroke: #000000; stroke-width: 0.8; stroke-linejoin: miter; stroke-linecap: square"/>
   </g>
   <g id="patch_6">
    <path d="M 90 43.2 
L 648 43.2 
" style="fill: none; stroke: #000000; stroke-width: 0.8; stroke-linejoin: miter; stroke-linecap: square"/>
   </g>
   <g id="text_17">
    <!-- Выбранная модель тренда -->
    <g transform="translate(283.861875 37.2) scale(0.12 -0.12)">
     <defs>
      <path id="DejaVuSans-412" d="M 1259 2228 
L 1259 519 
L 2272 519 
Q 2781 519 3026 730 
Q 3272 941 3272 1375 
Q 3272 1813 3026 2020 
Q 2781 2228 2272 2228 
L 1259 2228 
z
M 1259 4147 
L 1259 2741 
L 2194 2741 
Q 2656 2741 2882 2914 
Q 3109 3088 3109 3444 
Q 3109 3797 2882 3972 
Q 2656 4147 2194 4147 
L 1259 4147 
z
M 628 4666 
L 2241 4666 
Q 2963 4666 3353 4366 
Q 3744 4066 3744 3513 
Q 3744 3084 3544 2831 
Q 3344 2578 2956 2516 
Q 3422 2416 3680 2098 
Q 3938 1781 3938 1306 
Q 3938 681 3513 340 
Q 3088 0 2303 0 
L 628 0 
L 628 4666 
z
" transform="scale(0.015625)"/>
      <path id="DejaVuSans-44b" d="M 3907 3500 
L 4482 3500 
L 4482 0 
L 3907 0 
L 3907 3500 
z
M 4195 3584 
L 4195 3584 
z
M 2781 1038 
Q 2781 1319 2576 1466 
Q 2372 1613 1978 1613 
L 1159 1613 
L 1159 459 
L 1978 459 
Q 2372 459 2576 607 
Q 2781 756 2781 1038 
z
M 581 3500 
L 1159 3500 
L 1159 2072 
L 2003 2072 
Q 2672 2072 3033 1817 
Q 3394 1563 3394 1038 
Q 3394 513 3033 256 
Q 2672 0 2003 0 
L 581 0 
L 581 3500 
z
" transform="scale(0.015625)"/>
      <path id="DejaVuSans-431" d="M 1991 3584 
Q 2741 3584 3169 3096 
Q 3597 2609 3597 1747 
Q 3597 888 3169 398 
Q 2741 -91 1991 -91 
Q 1238 -91 822 384 
Q 406 859 384 1747 
L 366 2463 
Q 350 2834 350 2963 
Q 350 3463 531 3831 
Q 816 4409 1308 4659 
Q 1800 4909 2625 4916 
Q 3006 4919 3175 4972 
L 3334 4516 
Q 3181 4453 3041 4450 
L 2259 4397 
Q 1866 4369 1628 4231 
Q 1006 3866 947 3388 
L 925 3213 
Q 1331 3584 1991 3584 
z
M 1991 3097 
Q 1528 3097 1259 2736 
Q 991 2375 991 1747 
Q 991 1119 1258 758 
Q 1525 397 1991 397 
Q 2450 397 2719 759 
Q 2988 1122 2988 1747 
Q 2988 2369 2719 2733 
Q 2450 3097 1991 3097 
z
" transform="scale(0.015625)"/>
      <path id="DejaVuSans-440" d="M 1159 525 
L 1159 -1331 
L 581 -1331 
L 581 3500 
L 1159 3500 
L 1159 2969 
Q 1341 3281 1617 3432 
Q 1894 3584 2278 3584 
Q 2916 3584 3314 3078 
Q 3713 2572 3713 1747 
Q 3713 922 3314 415 
Q 2916 -91 2278 -91 
Q 1894 -91 1617 61 
Q 1341 213 1159 525 
z
M 3116 1747 
Q 3116 2381 2855 2742 
Q 2594 3103 2138 3103 
Q 1681 3103 1420 2742 
Q 1159 2381 1159 1747 
Q 1159 1113 1420 752 
Q 1681 391 2138 391 
Q 2594 391 2855 752 
Q 3116 1113 3116 1747 
z
" transform="scale(0.015625)"/>
      <path id="DejaVuSans-44f" d="M 1181 2491 
Q 1181 2231 1381 2084 
Q 1581 1938 1953 1938 
L 2728 1938 
L 2728 3041 
L 1953 3041 
Q 1581 3041 1381 2897 
Q 1181 2753 1181 2491 
z
M 363 0 
L 1431 1534 
Q 1069 1616 828 1830 
Q 588 2044 588 2491 
Q 588 2997 923 3248 
Q 1259 3500 1938 3500 
L 3306 3500 
L 3306 0 
L 2728 0 
L 2728 1478 
L 2013 1478 
L 981 0 
L 363 0 
z
" transform="scale(0.015625)"/>
      <path id="DejaVuSans-20" transform="scale(0.015625)"/>
      <path id="DejaVuSans-43c" d="M 581 3500 
L 1422 3500 
L 2416 1156 
L 3413 3500 
L 4247 3500 
L 4247 0 
L 3669 0 
L 3669 2950 
L 2703 672 
L 2128 672 
L 1159 2950 
L 1159 0 
L 581 0 
L 581 3500 
z
" transform="scale(0.015625)"/>
      <path id="DejaVuSans-43e" d="M 1959 3097 
Q 1497 3097 1228 2736 
Q 959 2375 959 1747 
Q 959 1119 1226 758 
Q 1494 397 1959 397 
Q 2419 397 2687 759 
Q 2956 1122 2956 1747 
Q 2956 2369 2687 2733 
Q 2419 3097 1959 3097 
z
M 1959 3584 
Q 2709 3584 3137 3096 
Q 3566 2609 3566 1747 
Q 3566 888 3137 398 
Q 2709 -91 1959 -91 
Q 1206 -91 779 398 
Q 353 888 353 1747 
Q 353 2609 779 3096 
Q 1206 3584 1959 3584 
z
" transform="scale(0.015625)"/>
      <path id="DejaVuSans-434" d="M 1384 459 
L 3053 459 
L 3053 3041 
L 1844 3041 
L 1844 2603 
Q 1844 1316 1475 628 
L 1384 459 
z
M 550 459 
Q 834 584 959 850 
Q 1266 1509 1266 2838 
L 1266 3500 
L 3631 3500 
L 3631 459 
L 4091 459 
L 4091 -884 
L 3631 -884 
L 3631 0 
L 794 0 
L 794 -884 
L 334 -884 
L 334 459 
L 550 459 
z
" transform="scale(0.015625)"/>
      <path id="DejaVuSans-43b" d="M 238 0 
L 238 478 
Q 806 566 981 959 
Q 1194 1513 1194 2928 
L 1194 3500 
L 3559 3500 
L 3559 0 
L 2984 0 
L 2984 3041 
L 1769 3041 
L 1769 2694 
Q 1769 1344 1494 738 
Q 1200 91 238 0 
z
" transform="scale(0.015625)"/>
      <path id="DejaVuSans-44c" d="M 2781 1038 
Q 2781 1319 2576 1466 
Q 2372 1613 1978 1613 
L 1159 1613 
L 1159 459 
L 1978 459 
Q 2372 459 2576 607 
Q 2781 756 2781 1038 
z
M 581 3500 
L 1159 3500 
L 1159 2072 
L 2003 2072 
Q 2672 2072 3033 1817 
Q 3394 1563 3394 1038 
Q 3394 513 3033 256 
Q 2672 0 2003 0 
L 581 0 
L 581 3500 
z
" transform="scale(0.015625)"/>
     </defs>
     <use xlink:href="#DejaVuSans-412"/>
     <use xlink:href="#DejaVuSans-44b" x="68.603516"/>
     <use xlink:href="#DejaVuSans-431" x="147.558594"/>
     <use xlink:href="#DejaVuSans-440" x="209.228516"/>
     <use xlink:href="#DejaVuSans-430" x="272.705078"/>
     <use xlink:href="#DejaVuSans-43d" x="333.984375"/>
     <use xlink:href="#DejaVuSans-43d" x="399.365234"/>
     <use xlink:href="#DejaVuSans-430" x="464.746094"/>
     <use xlink:href="#DejaVuSans-44f" x="526.025391"/>
     <use xlink:href="#DejaVuSans-20" x="586.181641"/>
     <use xlink:href="#DejaVuSans-43c" x="617.96875"/>
     <use xlink:href="#DejaVuSans-43e" x="693.408203"/>
     <use xlink:href="#DejaVuSans-434" x="754.589844"/>
     <use xlink:href="#DejaVuSans-435" x="823.730469"/>
     <use xlink:href="#DejaVuSans-43b" x="885.253906"/>
     <use xlink:href="#DejaVuSans-44c" x="949.169922"/>
     <use xlink:href="#DejaVuSans-20" x="1008.105469"/>
     <use xlink:href="#DejaVuSans-442" x="1039.892578"/>
     <use xlink:href="#DejaVuSans-440" x="1098.144531"/>
     <use xlink:href="#DejaVuSans-435" x="1161.621094"/>
     <use xlink:href="#DejaVuSans-43d" x="1223.144531"/>
     <use xlink:href="#DejaVuSans-434" x="1288.525391"/>
     <use xlink:href="#DejaVuSans-430" x="1357.666016"/>
    </g>
   </g>
   <g id="legend_1">
    <g id="patch_7">
     <path d="M 97 80.55625 
L 261.371875 80.55625 
Q 263.371875 80.55625 263.371875 78.55625 
L 263.371875 50.2 
Q 263.371875 48.2 261.371875 48.2 
L 97 48.2 
Q 95 48.2 95 50.2 
L 95 78.55625 
Q 95 80.55625 97 80.55625 
z
" style="fill: #ffffff; opacity: 0.8; stroke: #cccccc; stroke-linejoin: miter"/>
    </g>
    <g id="line2d_31">
     <path d="M 99 56.298437 
L 109 56.298437 
L 119 56.298437 
" style="fill: none; stroke: #1f77b4; stroke-width: 1.5; stroke-linecap: square"/>
     <g>
      <use xlink:href="#mfbbd1886ec" x="109" y="56.298437" style="fill: #1f77b4; stroke: #1f77b4"/>
     </g>
    </g>
    <g id="text_18">
     <!-- Исходные данные -->
     <g transform="translate(127 59.798437) scale(0.1 -0.1)">
      <defs>
       <path id="DejaVuSans-418" d="M 4159 4666 
L 4159 0 
L 3547 0 
L 3547 3903 
L 1478 0 
L 628 0 
L 628 4666 
L 1241 4666 
L 1241 763 
L 3309 4666 
L 4159 4666 
z
" transform="scale(0.015625)"/>
       <path id="DejaVuSans-441" d="M 3122 3366 
L 3122 2828 
Q 2878 2963 2633 3030 
Q 2388 3097 2138 3097 
Q 1578 3097 1268 2742 
Q 959 2388 959 1747 
Q 959 1106 1268 751 
Q 1578 397 2138 397 
Q 2388 397 2633 464 
Q 2878 531 3122 666 
L 3122 134 
Q 2881 22 2623 -34 
Q 2366 -91 2075 -91 
Q 1284 -91 818 406 
Q 353 903 353 1747 
Q 353 2603 823 3093 
Q 1294 3584 2113 3584 
Q 2378 3584 2631 3529 
Q 2884 3475 3122 3366 
z
" transform="scale(0.015625)"/>
       <path id="DejaVuSans-445" d="M 3513 3500 
L 2247 1797 
L 3578 0 
L 2900 0 
L 1881 1375 
L 863 0 
L 184 0 
L 1544 1831 
L 300 3500 
L 978 3500 
L 1906 2253 
L 2834 3500 
L 3513 3500 
z
" transform="scale(0.015625)"/>
      </defs>
      <use xlink:href="#DejaVuSans-418"/>
      <use xlink:href="#DejaVuSans-441" x="74.804688"/>
      <use xlink:href="#DejaVuSans-445" x="129.785156"/>
      <use xlink:href="#DejaVuSans-43e" x="188.964844"/>
      <use xlink:href="#DejaVuSans-434" x="250.146484"/>
      <use xlink:href="#DejaVuSans-43d" x="319.287109"/>
      <use xlink:href="#DejaVuSans-44b" x="384.667969"/>
      <use xlink:href="#DejaVuSans-435" x="463.623047"/>
      <use xlink:href="#DejaVuSans-20" x="525.146484"/>
      <use xlink:href="#DejaVuSans-434" x="556.933594"/>
      <use xlink:href="#DejaVuSans-430" x="626.074219"/>
      <use xlink:href="#DejaVuSans-43d" x="687.353516"/>
      <use xlink:href="#DejaVuSans-43d" x="752.734375"/>
      <use xlink:href="#DejaVuSans-44b" x="818.115234"/>
      <use xlink:href="#DejaVuSans-435" x="897.070312"/>
     </g>
    </g>
    <g id="line2d_32">
     <path d="M 99 70.976562 
L 109 70.976562 
L 119 70.976562 
" style="fill: none; stroke-dasharray: 1.5,2.475; stroke-dashoffset: 0; stroke: #ff0000; stroke-width: 1.5"/>
    </g>
    <g id="text_19">
     <!-- Квадратичная регрессия -->
     <g transform="translate(127 74.476562) scale(0.1 -0.1)">
      <defs>
       <path id="DejaVuSans-41a" d="M 628 4666 
L 1259 4666 
L 1259 2359 
L 3516 4666 
L 4325 4666 
L 2522 2822 
L 4419 0 
L 3731 0 
L 2113 2403 
L 1259 1531 
L 1259 0 
L 628 0 
L 628 4666 
z
" transform="scale(0.015625)"/>
       <path id="DejaVuSans-432" d="M 1156 1613 
L 1156 459 
L 1975 459 
Q 2369 459 2575 607 
Q 2781 756 2781 1038 
Q 2781 1319 2575 1466 
Q 2369 1613 1975 1613 
L 1156 1613 
z
M 1156 3041 
L 1156 2072 
L 1913 2072 
Q 2238 2072 2444 2201 
Q 2650 2331 2650 2563 
Q 2650 2794 2444 2917 
Q 2238 3041 1913 3041 
L 1156 3041 
z
M 581 3500 
L 1950 3500 
Q 2566 3500 2897 3275 
Q 3228 3050 3228 2634 
Q 3228 2313 3059 2123 
Q 2891 1934 2559 1888 
Q 2956 1813 3175 1575 
Q 3394 1338 3394 981 
Q 3394 513 3033 256 
Q 2672 0 2003 0 
L 581 0 
L 581 3500 
z
" transform="scale(0.015625)"/>
       <path id="DejaVuSans-433" d="M 581 0 
L 581 3500 
L 3050 3500 
L 3050 3041 
L 1159 3041 
L 1159 0 
L 581 0 
z
" transform="scale(0.015625)"/>
      </defs>
      <use xlink:href="#DejaVuSans-41a"/>
      <use xlink:href="#DejaVuSans-432" x="70.996094"/>
      <use xlink:href="#DejaVuSans-430" x="129.931641"/>
      <use xlink:href="#DejaVuSans-434" x="191.210938"/>
      <use xlink:href="#DejaVuSans-440" x="260.351562"/>
      <use xlink:href="#DejaVuSans-430" x="323.828125"/>
      <use xlink:href="#DejaVuSans-442" x="385.107422"/>
      <use xlink:href="#DejaVuSans-438" x="443.359375"/>
      <use xlink:href="#DejaVuSans-447" x="508.349609"/>
      <use xlink:href="#DejaVuSans-43d" x="567.431641"/>
      <use xlink:href="#DejaVuSans-430" x="632.8125"/>
      <use xlink:href="#DejaVuSans-44f" x="694.091797"/>
      <use xlink:href="#DejaVuSans-20" x="754.248047"/>
      <use xlink:href="#DejaVuSans-440" x="786.035156"/>
      <use xlink:href="#DejaVuSans-435" x="849.511719"/>
      <use xlink:href="#DejaVuSans-433" x="911.035156"/>
      <use xlink:href="#DejaVuSans-440" x="963.574219"/>
      <use xlink:href="#DejaVuSans-435" x="1027.050781"/>
      <use xlink:href="#DejaVuSans-441" x="1088.574219"/>
      <use xlink:href="#DejaVuSans-441" x="1143.554688"/>
      <use xlink:href="#DejaVuSans-438" x="1198.535156"/>
      <use xlink:href="#DejaVuSans-44f" x="1263.525391"/>
     </g>
    </g>
   </g>
  </g>
 </g>
 <defs>
  <clipPath id="pcd11dfc7e0">
   <rect x="90" y="43.2" width="558" height="277.2"/>
  </clipPath>
 </defs>
</svg>
